<svg width="35" height="43" viewBox="0 0 35 43" fill="none" xmlns="http://www.w3.org/2000/svg">
<path d="M15.1431 16.4242L1.25012 39.3585C1.11987 39.5665 1.03849 39.7949 1.01071 40.0305C0.982934 40.2661 1.00931 40.5041 1.08831 40.7308C1.16731 40.9574 1.29736 41.1682 1.4709 41.3508C1.64444 41.5334 1.85802 41.6842 2.09922 41.7945C2.34042 41.9048 2.60444 41.9724 2.87594 41.9932C3.14743 42.0141 3.421 41.9879 3.68074 41.9161C3.94049 41.8444 4.18122 41.7285 4.38898 41.5752C4.59673 41.4219 4.76735 41.2342 4.89093 41.0232L18.7839 18.0895C19.0356 17.6702 19.0857 17.1814 18.9234 16.7301C18.7612 16.2787 18.3997 15.9017 17.9181 15.6814C17.4366 15.4611 16.8742 15.4156 16.3541 15.5548C15.834 15.694 15.3985 16.0066 15.1431 16.4242V16.4242Z" fill="white"/>
<path d="M17.9249 15.6753L2.11212 41.773C2.59534 41.9923 3.15881 42.0366 3.67946 41.8961C4.20011 41.7556 4.63562 41.4418 4.89088 41.0233L18.7839 18.0896C19.0366 17.6702 19.0881 17.181 18.9272 16.7286C18.7663 16.2763 18.406 15.8977 17.9249 15.6753V15.6753Z" fill="white"/>
<path d="M15.1432 16.4242L13.7056 18.7967L17.3464 20.462L18.784 18.0895C19.0356 17.6702 19.0857 17.1814 18.9235 16.7301C18.7612 16.2787 18.3997 15.9017 17.9181 15.6814C17.4366 15.4611 16.8742 15.4156 16.3541 15.5548C15.834 15.694 15.3986 16.0066 15.1432 16.4242Z" fill="white"/>
<path d="M15.1431 16.4242L1.25012 39.3585C1.11987 39.5665 1.03849 39.7949 1.01071 40.0305C0.982934 40.2661 1.00931 40.5041 1.08831 40.7308C1.16731 40.9574 1.29736 41.1682 1.4709 41.3508C1.64444 41.5334 1.85802 41.6842 2.09922 41.7945C2.34042 41.9048 2.60444 41.9724 2.87594 41.9932C3.14743 42.0141 3.421 41.9879 3.68074 41.9161C3.94049 41.8444 4.18122 41.7285 4.38898 41.5752C4.59673 41.4219 4.76735 41.2342 4.89093 41.0232L18.7839 18.0895C19.0356 17.6702 19.0857 17.1814 18.9234 16.7301C18.7612 16.2787 18.3997 15.9017 17.9181 15.6814C17.4366 15.4611 16.8742 15.4156 16.3541 15.5548C15.834 15.694 15.3985 16.0066 15.1431 16.4242V16.4242Z" stroke="white" stroke-linejoin="round"/>
<path d="M17.925 15.6753L15.5291 19.6295L17.3496 20.4622L18.7871 18.0896C19.0396 17.6699 19.0906 17.1804 18.9291 16.728C18.7676 16.2756 18.4066 15.8972 17.925 15.6753Z" fill="white"/>
<path d="M15.1432 16.4242L13.7056 18.7967L17.3464 20.462L18.784 18.0895C19.0356 17.6702 19.0857 17.1814 18.9235 16.7301C18.7612 16.2787 18.3997 15.9017 17.9181 15.6814C17.4366 15.4611 16.8742 15.4156 16.3541 15.5548C15.834 15.694 15.3986 16.0066 15.1432 16.4242V16.4242Z" stroke="white" stroke-linejoin="round"/>
<path d="M20.4988 7.23701C19.768 6.93347 19.7796 4.26641 20.2021 3.00553C20.3558 2.56889 20.6573 2.21698 21.0418 2.02565C21.4263 1.83433 21.8629 1.81892 22.2576 1.98274C22.6522 2.14657 22.9731 2.47652 23.1513 2.90144C23.3295 3.32637 23.3505 3.81224 23.21 4.25431C22.7875 5.51519 21.2296 7.54056 20.4988 7.23701Z" fill="white" stroke="white" stroke-linecap="round" stroke-linejoin="round"/>
<path d="M13.11 6.5452C12.3489 6.73459 11.0551 4.49042 10.7918 3.17679C10.6991 2.71405 10.7753 2.22927 11.0036 1.82908C11.2319 1.4289 11.5936 1.14609 12.0092 1.04288C12.4247 0.939668 12.8601 1.0245 13.2194 1.27873C13.5788 1.53295 13.8328 1.93573 13.9255 2.39846C14.1849 3.71383 13.8688 6.35667 13.11 6.5452Z" fill="white" stroke="white" stroke-linecap="round" stroke-linejoin="round"/>
<path d="M6.57009 10.4488C6.02645 11.0688 3.84104 9.9714 2.97821 9.02876C2.68377 8.69462 2.5188 8.24519 2.51874 7.77706C2.51868 7.30892 2.68354 6.85944 2.9779 6.52521C3.27225 6.19097 3.67261 5.99866 4.09293 5.98959C4.51325 5.98053 4.91999 6.15543 5.22575 6.47672C6.08858 7.41936 7.11605 9.82784 6.57009 10.4488Z" fill="white" stroke="white" stroke-linecap="round" stroke-linejoin="round"/>
<path d="M28.7489 19.3411C28.6596 18.4763 30.7992 17.2794 31.9998 17.1255C32.4228 17.0713 32.8477 17.2065 33.1812 17.5013C33.5146 17.7961 33.7293 18.2263 33.7779 18.6972C33.8265 19.1682 33.7051 19.6414 33.4404 20.0128C33.1757 20.3841 32.7893 20.6231 32.3664 20.6772C31.1649 20.8312 28.8374 20.2033 28.7489 19.3411Z" fill="white" stroke="white" stroke-linecap="round" stroke-linejoin="round"/>
<path d="M25.9461 11.6925C25.4498 11.0232 26.6575 8.72107 27.5894 7.86405C27.9186 7.57229 28.3375 7.43609 28.7559 7.48478C29.1744 7.53347 29.559 7.76315 29.8269 8.12439C30.0948 8.48562 30.2246 8.94955 30.1885 9.41632C30.1523 9.88308 29.953 10.3154 29.6335 10.6202C28.7015 11.4772 26.4431 12.3628 25.9461 11.6925Z" fill="white" stroke="white" stroke-linecap="round" stroke-linejoin="round"/>
</svg>
